<svg width="106" height="106" viewBox="0 0 106 106" fill="none" xmlns="http://www.w3.org/2000/svg">
<g clip-path="url(#clip0_411_7)">
<rect width="106" height="106" rx="16" fill="#7E4FFE"/>
<path d="M21.6876 58.4868C20.6852 66.8474 26.1193 74.8993 34.3159 73.1604C45.6022 70.766 43.1398 63.3781 41.5458 58.9525C39.9518 54.5269 37.7751 42.9116 45.4455 44.1487C53.1158 45.3858 61.51 76.6025 70.7703 71.6672C81.7703 65.8048 77.2429 33.0388 55.2761 28.7772C41.7456 26.1523 27.6815 35.9235 39.0772 48.618C50.4729 61.3126 58.7189 70.7642 53.9498 76.9694C50.0587 82.0322 39.0771 77.4275 38.4913 64.7649C38.1363 57.0931 34.2189 45.0658 26.9993 47.8662C20.4266 50.2335 15.119 70.1442 24.7703 79.6672C31.0697 85.8829 49.257 90.1621 63.2703 78.1673C73.2007 69.6673 68.6796 59.6018 63.2703 46.1673C57.2044 31.1018 33.086 14.1119 21.1407 41.3098C9.69703 67.3657 64.7135 68.7434 87.5507 35.0386" stroke="white" stroke-width="4" stroke-linecap="round" stroke-linejoin="round"/>
<path d="M74.9154 37.9244L89.3005 33.4046L88.2365 47.3641" stroke="white" stroke-width="4" stroke-linecap="round" stroke-linejoin="round"/>
</g>
<defs>
<clipPath id="clip0_411_7">
<rect width="106" height="106" rx="16" fill="white"/>
</clipPath>
</defs>
</svg>
