<svg xmlns="http://www.w3.org/2000/svg" width="169" height="155" viewBox="0 0 169 155" version="1.1"><path d="M 61.813 31.683 C 62.534 31.972, 63.397 31.936, 63.729 31.604 C 64.061 31.272, 63.471 31.036, 62.417 31.079 C 61.252 31.127, 61.015 31.364, 61.813 31.683 M 72.813 33.683 C 73.534 33.972, 74.397 33.936, 74.729 33.604 C 75.061 33.272, 74.471 33.036, 73.417 33.079 C 72.252 33.127, 72.015 33.364, 72.813 33.683 M 61.405 39.155 C 60.962 39.870, 61.130 40.038, 61.845 39.595 C 62.998 38.883, 63.393 38, 62.559 38 C 62.316 38, 61.797 38.520, 61.405 39.155 M 51.507 39.989 C 51.157 40.555, 51.558 40.723, 52.448 40.382 C 54.180 39.717, 54.497 39, 53.059 39 C 52.541 39, 51.843 39.445, 51.507 39.989 M 86 41.060 C 86 41.459, 86.600 42.016, 87.333 42.298 C 88.067 42.579, 88.667 42.252, 88.667 41.571 C 88.667 40.890, 88.067 40.333, 87.333 40.333 C 86.600 40.333, 86 40.660, 86 41.060 M 48.405 42.155 C 47.962 42.870, 48.130 43.038, 48.845 42.595 C 49.998 41.883, 50.393 41, 49.559 41 C 49.316 41, 48.797 41.520, 48.405 42.155 M 106.500 43 C 106.840 43.550, 107.343 44, 107.618 44 C 107.893 44, 107.840 43.550, 107.500 43 C 107.160 42.450, 106.657 42, 106.382 42 C 106.107 42, 106.160 42.450, 106.500 43 M 137.333 43.667 C 137.700 44.033, 138.300 44.033, 138.667 43.667 C 139.033 43.300, 138.733 43, 138 43 C 137.267 43, 136.967 43.300, 137.333 43.667 M 83 46.378 C 83 46.585, 83.787 47.373, 84.750 48.128 C 86.336 49.371, 86.371 49.336, 85.128 47.750 C 83.821 46.084, 83 45.555, 83 46.378 M 101 46.378 C 101 46.585, 101.787 47.373, 102.750 48.128 C 104.336 49.371, 104.371 49.336, 103.128 47.750 C 101.821 46.084, 101 45.555, 101 46.378 M 41.405 49.155 C 40.962 49.870, 41.130 50.038, 41.845 49.595 C 42.998 48.883, 43.393 48, 42.559 48 C 42.316 48, 41.797 48.520, 41.405 49.155 M 116.236 53.563 C 118.031 56.348, 119.680 58.148, 119.900 57.563 C 120.120 56.979, 120.795 56.169, 121.400 55.765 C 122.077 55.313, 121.821 55.025, 120.736 55.015 C 119.766 55.007, 117.622 53.538, 115.972 51.750 L 112.972 48.500 116.236 53.563 M 132.333 51.667 C 132.700 52.033, 133.300 52.033, 133.667 51.667 C 134.033 51.300, 133.733 51, 133 51 C 132.267 51, 131.967 51.300, 132.333 51.667 M 129.333 52.667 C 129.700 53.033, 130.300 53.033, 130.667 52.667 C 131.033 52.300, 130.733 52, 130 52 C 129.267 52, 128.967 52.300, 129.333 52.667 M 108 53.378 C 108 53.585, 108.787 54.373, 109.750 55.128 C 111.336 56.371, 111.371 56.336, 110.128 54.750 C 108.821 53.084, 108 52.555, 108 53.378 M 126.333 53.667 C 126.700 54.033, 127.300 54.033, 127.667 53.667 C 128.033 53.300, 127.733 53, 127 53 C 126.267 53, 125.967 53.300, 126.333 53.667 M 123.333 54.667 C 123.700 55.033, 124.300 55.033, 124.667 54.667 C 125.033 54.300, 124.733 54, 124 54 C 123.267 54, 122.967 54.300, 123.333 54.667 M 127 58.500 C 124.571 60.975, 122.809 63, 123.084 63 C 123.359 63, 125.571 60.975, 128 58.500 C 130.429 56.025, 132.191 54, 131.916 54 C 131.641 54, 129.429 56.025, 127 58.500 M 145.232 57 C 145.232 58.925, 145.438 59.712, 145.689 58.750 C 145.941 57.788, 145.941 56.212, 145.689 55.250 C 145.438 54.288, 145.232 55.075, 145.232 57 M 137.405 56.155 C 136.980 56.841, 137.128 57.039, 137.770 56.642 C 138.363 56.276, 139.055 56.769, 139.308 57.738 C 139.658 59.079, 139.796 58.962, 139.884 57.250 C 140.007 54.858, 138.592 54.233, 137.405 56.155 M 35 61 C 35 61.733, 35.300 62.033, 35.667 61.667 C 36.033 61.300, 36.033 60.700, 35.667 60.333 C 35.300 59.967, 35 60.267, 35 61 M 34.079 64.583 C 34.127 65.748, 34.364 65.985, 34.683 65.188 C 34.972 64.466, 34.936 63.603, 34.604 63.271 C 34.272 62.939, 34.036 63.529, 34.079 64.583 M 68.405 66.155 C 67.962 66.870, 68.130 67.038, 68.845 66.595 C 69.480 66.203, 70 65.684, 70 65.441 C 70 64.607, 69.117 65.002, 68.405 66.155 M 74 66.378 C 74 66.585, 74.787 67.373, 75.750 68.128 C 77.336 69.371, 77.371 69.336, 76.128 67.750 C 74.821 66.084, 74 65.555, 74 66.378 M 115.564 67.707 C 115.022 69.132, 115.136 69.247, 116.124 68.267 C 116.808 67.588, 117.115 66.781, 116.807 66.474 C 116.499 66.166, 115.940 66.721, 115.564 67.707 M 36.872 68.750 C 35.629 70.336, 35.664 70.371, 37.250 69.128 C 38.916 67.821, 39.445 67, 38.622 67 C 38.415 67, 37.627 67.787, 36.872 68.750 M 67 69.441 C 67 70.234, 67.408 71.134, 67.907 71.442 C 68.405 71.751, 68.578 71.102, 68.290 70.001 C 67.679 67.666, 67 67.371, 67 69.441 M 124.405 69.155 C 123.962 69.870, 124.130 70.038, 124.845 69.595 C 125.480 69.203, 126 68.684, 126 68.441 C 126 67.607, 125.117 68.002, 124.405 69.155 M 140.333 70.667 C 140.700 71.033, 141.300 71.033, 141.667 70.667 C 142.033 70.300, 141.733 70, 141 70 C 140.267 70, 139.967 70.300, 140.333 70.667 M 42.405 72.155 C 41.962 72.870, 42.130 73.038, 42.845 72.595 C 43.480 72.203, 44 71.684, 44 71.441 C 44 70.607, 43.117 71.002, 42.405 72.155 M 50.500 73 C 50.840 73.550, 51.343 74, 51.618 74 C 51.893 74, 51.840 73.550, 51.500 73 C 51.160 72.450, 50.657 72, 50.382 72 C 50.107 72, 50.160 72.450, 50.500 73 M 124 73 C 124 73.733, 124.300 74.033, 124.667 73.667 C 125.033 73.300, 125.033 72.700, 124.667 72.333 C 124.300 71.967, 124 72.267, 124 73 M 125.158 79 C 125.158 80.375, 125.385 80.938, 125.662 80.250 C 125.940 79.563, 125.940 78.438, 125.662 77.750 C 125.385 77.063, 125.158 77.625, 125.158 79 M 30.079 79.583 C 30.127 80.748, 30.364 80.985, 30.683 80.188 C 30.972 79.466, 30.936 78.603, 30.604 78.271 C 30.272 77.939, 30.036 78.529, 30.079 79.583 M 110.459 79.067 C 110.096 79.653, 110.014 80.348, 110.276 80.610 C 110.538 80.872, 111.019 80.392, 111.345 79.543 C 112.021 77.781, 111.445 77.471, 110.459 79.067 M 119 79 C 119 79.733, 119.300 80.033, 119.667 79.667 C 120.033 79.300, 120.033 78.700, 119.667 78.333 C 119.300 77.967, 119 78.267, 119 79 M 91.333 80.667 C 91.700 81.033, 92.300 81.033, 92.667 80.667 C 93.033 80.300, 92.733 80, 92 80 C 91.267 80, 90.967 80.300, 91.333 80.667 M 68 82 C 68 82.733, 68.300 83.033, 68.667 82.667 C 69.033 82.300, 69.033 81.700, 68.667 81.333 C 68.300 80.967, 68 81.267, 68 82 M 84 82 C 84 82.733, 84.300 83.033, 84.667 82.667 C 85.033 82.300, 85.033 81.700, 84.667 81.333 C 84.300 80.967, 84 81.267, 84 82 M 55.564 84.707 C 55.022 86.132, 55.136 86.247, 56.124 85.267 C 56.808 84.588, 57.115 83.781, 56.807 83.474 C 56.499 83.166, 55.940 83.721, 55.564 84.707 M 70 84.559 C 70 85.416, 70.457 85.835, 71.016 85.490 C 71.575 85.144, 71.774 84.443, 71.457 83.931 C 70.600 82.544, 70 82.802, 70 84.559 M 78.333 83.667 C 78.700 84.033, 79.300 84.033, 79.667 83.667 C 80.033 83.300, 79.733 83, 79 83 C 78.267 83, 77.967 83.300, 78.333 83.667 M 95.459 86.067 C 95.096 86.653, 95.014 87.348, 95.276 87.610 C 95.538 87.872, 96.019 87.392, 96.345 86.543 C 97.021 84.781, 96.445 84.471, 95.459 86.067 M 37.813 86.683 C 38.534 86.972, 39.397 86.936, 39.729 86.604 C 40.061 86.272, 39.471 86.036, 38.417 86.079 C 37.252 86.127, 37.015 86.364, 37.813 86.683 M 28.079 88.583 C 28.127 89.748, 28.364 89.985, 28.683 89.188 C 28.972 88.466, 28.936 87.603, 28.604 87.271 C 28.272 86.939, 28.036 87.529, 28.079 88.583 M 88.500 89 C 88.840 89.550, 89.343 90, 89.618 90 C 89.893 90, 89.840 89.550, 89.500 89 C 89.160 88.450, 88.657 88, 88.382 88 C 88.107 88, 88.160 88.450, 88.500 89 M 119 90 C 119 90.733, 119.300 91.033, 119.667 90.667 C 120.033 90.300, 120.033 89.700, 119.667 89.333 C 119.300 88.967, 119 89.267, 119 90 M 125 90 C 125 90.733, 125.300 91.033, 125.667 90.667 C 126.033 90.300, 126.033 89.700, 125.667 89.333 C 125.300 88.967, 125 89.267, 125 90 M 37 92 C 37 92.733, 37.300 93.033, 37.667 92.667 C 38.033 92.300, 38.033 91.700, 37.667 91.333 C 37.300 90.967, 37 91.267, 37 92 M 71.195 93.500 C 71.215 95.150, 71.439 95.704, 71.693 94.731 C 71.947 93.758, 71.930 92.408, 71.656 91.731 C 71.382 91.054, 71.175 91.850, 71.195 93.500 M 77.500 93 C 78.495 94.100, 79.535 95, 79.810 95 C 80.085 95, 79.495 94.100, 78.500 93 C 77.505 91.900, 76.465 91, 76.190 91 C 75.915 91, 76.505 91.900, 77.500 93 M 64 94.941 C 64 96.623, 64.450 98, 65 98 C 65.550 98, 66 96.902, 66 95.559 C 66 94.216, 65.550 92.840, 65 92.500 C 64.417 92.139, 64 93.156, 64 94.941 M 107.158 94 C 107.158 95.375, 107.385 95.938, 107.662 95.250 C 107.940 94.563, 107.940 93.438, 107.662 92.750 C 107.385 92.063, 107.158 92.625, 107.158 94 M 58 95 C 58 95.733, 58.300 96.033, 58.667 95.667 C 59.033 95.300, 59.033 94.700, 58.667 94.333 C 58.300 93.967, 58 94.267, 58 95 M 80.500 97 C 80.840 97.550, 81.343 98, 81.618 98 C 81.893 98, 81.840 97.550, 81.500 97 C 81.160 96.450, 80.657 96, 80.382 96 C 80.107 96, 80.160 96.450, 80.500 97 M 71 98 C 71 98.733, 71.300 99.033, 71.667 98.667 C 72.033 98.300, 72.033 97.700, 71.667 97.333 C 71.300 96.967, 71 97.267, 71 98 M 103.924 100.250 C 106.497 103.168, 108 103.752, 108 101.833 C 108 101.192, 107.696 100.971, 107.324 101.342 C 106.952 101.714, 105.490 101.002, 104.074 99.759 L 101.500 97.500 103.924 100.250 M 42.500 103 C 43.495 104.100, 44.535 105, 44.810 105 C 45.085 105, 44.495 104.100, 43.500 103 C 42.505 101.900, 41.465 101, 41.190 101 C 40.915 101, 41.505 101.900, 42.500 103 M 113.333 101.667 C 113.700 102.033, 114.300 102.033, 114.667 101.667 C 115.033 101.300, 114.733 101, 114 101 C 113.267 101, 112.967 101.300, 113.333 101.667 M 34 103.378 C 34 103.585, 34.685 104.324, 35.523 105.019 C 36.796 106.076, 36.943 106.014, 36.416 104.641 C 35.878 103.240, 34 102.257, 34 103.378 M 84 104 C 84 104.733, 84.300 105.033, 84.667 104.667 C 85.033 104.300, 85.033 103.700, 84.667 103.333 C 84.300 102.967, 84 103.267, 84 104 M 67.625 105.798 C 67.354 106.237, 67.545 107.249, 68.051 108.048 C 68.768 109.182, 68.973 109.007, 68.985 107.250 C 69 104.937, 68.492 104.394, 67.625 105.798 M 101.500 107 C 102.495 108.100, 103.535 109, 103.810 109 C 104.085 109, 103.495 108.100, 102.500 107 C 101.505 105.900, 100.465 105, 100.190 105 C 99.915 105, 100.505 105.900, 101.500 107 M 50.813 106.683 C 51.534 106.972, 52.397 106.936, 52.729 106.604 C 53.061 106.272, 52.471 106.036, 51.417 106.079 C 50.252 106.127, 50.015 106.364, 50.813 106.683 M 85 107.918 C 85 111.328, 83.766 113.194, 80.600 114.572 C 78.655 115.419, 78.169 115.936, 79.295 115.961 C 81.914 116.018, 86 111.499, 86 108.545 C 86 107.145, 85.775 106, 85.500 106 C 85.225 106, 85 106.863, 85 107.918 M 91.195 108.500 C 91.215 110.150, 91.439 110.704, 91.693 109.731 C 91.947 108.758, 91.930 107.408, 91.656 106.731 C 91.382 106.054, 91.175 106.850, 91.195 108.500 M 117.405 107.155 C 116.962 107.870, 117.130 108.038, 117.845 107.595 C 118.998 106.883, 119.393 106, 118.559 106 C 118.316 106, 117.797 106.520, 117.405 107.155 M 60.813 110.683 C 61.534 110.972, 62.397 110.936, 62.729 110.604 C 63.061 110.272, 62.471 110.036, 61.417 110.079 C 60.252 110.127, 60.015 110.364, 60.813 110.683 M 109.872 111.750 C 108.603 113.369, 108.650 113.390, 110.500 112.033 C 111.600 111.226, 112.688 110.439, 112.917 110.283 C 113.146 110.127, 112.863 110, 112.289 110 C 111.715 110, 110.627 110.787, 109.872 111.750 M 72.500 113 C 72.840 113.550, 73.343 114, 73.618 114 C 73.893 114, 73.840 113.550, 73.500 113 C 73.160 112.450, 72.657 112, 72.382 112 C 72.107 112, 72.160 112.450, 72.500 113 M 65 114.378 C 65 114.585, 65.787 115.373, 66.750 116.128 C 68.336 117.371, 68.371 117.336, 67.128 115.750 C 65.821 114.084, 65 113.555, 65 114.378 M 75.333 114.667 C 75.700 115.033, 76.300 115.033, 76.667 114.667 C 77.033 114.300, 76.733 114, 76 114 C 75.267 114, 74.967 114.300, 75.333 114.667 M 97.872 115.750 C 96.629 117.336, 96.664 117.371, 98.250 116.128 C 99.916 114.821, 100.445 114, 99.622 114 C 99.415 114, 98.627 114.787, 97.872 115.750 M 105.405 117.250 L 103.500 119.500 105.750 117.595 C 106.987 116.547, 108 115.535, 108 115.345 C 108 114.545, 107.195 115.136, 105.405 117.250 M 94.405 118.155 C 93.962 118.870, 94.130 119.038, 94.845 118.595 C 95.998 117.883, 96.393 117, 95.559 117 C 95.316 117, 94.797 117.520, 94.405 118.155 M 43.433 118.891 C 44.146 120.045, 48 122.374, 48 121.650 C 48 121.419, 46.820 120.457, 45.377 119.511 C 43.934 118.566, 43.059 118.287, 43.433 118.891 M 89 121 C 87.075 122.054, 85.860 122.935, 86.300 122.958 C 87.359 123.014, 93 120.081, 93 119.474 C 93 118.820, 92.941 118.842, 89 121 M 50 123 C 50.825 123.533, 51.950 123.969, 52.500 123.969 C 53.050 123.969, 52.825 123.533, 52 123 C 51.175 122.467, 50.050 122.031, 49.500 122.031 C 48.950 122.031, 49.175 122.467, 50 123 M 83.333 123.667 C 83.700 124.033, 84.300 124.033, 84.667 123.667 C 85.033 123.300, 84.733 123, 84 123 C 83.267 123, 82.967 123.300, 83.333 123.667 M 54.813 124.683 C 55.534 124.972, 56.397 124.936, 56.729 124.604 C 57.061 124.272, 56.471 124.036, 55.417 124.079 C 54.252 124.127, 54.015 124.364, 54.813 124.683 M 80.333 124.667 C 80.700 125.033, 81.300 125.033, 81.667 124.667 C 82.033 124.300, 81.733 124, 81 124 C 80.267 124, 79.967 124.300, 80.333 124.667 M 58.750 125.662 C 59.438 125.940, 60.563 125.940, 61.250 125.662 C 61.938 125.385, 61.375 125.158, 60 125.158 C 58.625 125.158, 58.063 125.385, 58.750 125.662 M 74.750 125.662 C 75.438 125.940, 76.563 125.940, 77.250 125.662 C 77.938 125.385, 77.375 125.158, 76 125.158 C 74.625 125.158, 74.063 125.385, 74.750 125.662 M 66.750 126.662 C 67.438 126.940, 68.563 126.940, 69.250 126.662 C 69.938 126.385, 69.375 126.158, 68 126.158 C 66.625 126.158, 66.063 126.385, 66.750 126.662" stroke="none" fill="#9e84eb" fill-rule="evenodd"/><path d="M 49.186 35.051 C 41.932 38.692, 36.745 44.557, 32.015 54.470 C 28.026 62.827, 27.309 68.405, 29.412 74.734 C 30.760 78.792, 30.843 80.237, 29.866 82.602 C 29.207 84.196, 28.631 90.225, 28.584 96 C 28.510 105.317, 28.792 107.120, 31.090 112 C 34.819 119.917, 38.322 123.579, 45.327 126.880 C 65.912 136.582, 89.471 132.610, 105.256 116.777 C 108.972 113.050, 112.459 110, 113.004 110 C 113.548 110, 115.769 108.397, 117.938 106.437 C 124.237 100.747, 126.894 89.992, 125.033 77.718 L 123.911 70.315 131.568 62.657 C 135.780 58.446, 139.349 55, 139.499 55 C 139.650 55, 139.712 58.263, 139.637 62.250 C 139.510 68.972, 139.658 69.522, 141.664 69.808 C 144.440 70.204, 144.690 69.229, 145.522 54.756 C 146.071 45.201, 145.938 42.913, 144.808 42.480 C 143.228 41.873, 118.380 49.576, 117.542 50.932 C 116.609 52.442, 118.123 55, 119.950 55 C 120.905 55, 124.306 54.099, 127.508 52.997 C 130.709 51.896, 133.498 51.164, 133.705 51.372 C 134.377 52.044, 123.840 63, 122.521 63 C 121.818 63, 120.660 61.594, 119.948 59.875 C 116.011 50.370, 103.488 38.744, 94.176 35.950 C 90.650 34.892, 77.324 33.383, 62.500 32.363 C 56.127 31.925, 54.934 32.166, 49.186 35.051 M 55.712 38.212 C 46.777 40.582, 34 57.602, 34 67.134 C 34 69.260, 34.313 71, 34.695 71 C 35.078 71, 36.602 69.839, 38.084 68.420 C 41.576 65.074, 47.566 64.207, 51.858 66.427 C 53.609 67.332, 56.374 70.194, 58.002 72.786 C 60.425 76.644, 60.965 77.079, 60.981 75.180 C 60.991 73.904, 59.721 70.979, 58.159 68.680 C 50.900 58.001, 51.628 47.031, 60.008 40.836 C 65.082 37.084, 63.531 36.137, 55.712 38.212 M 68.203 42.586 C 59.685 46.831, 56.814 53.309, 60.021 61.051 C 61.464 64.534, 62.088 64.666, 64.500 62 C 65.828 60.533, 67.580 60, 71.078 60 C 76.815 60, 79.874 62.621, 86.836 73.500 C 89.299 77.350, 91.425 80.644, 91.560 80.820 C 92.238 81.703, 102 76.552, 102 75.311 C 102 72.489, 95.248 59.415, 91.098 54.204 C 87.378 49.533, 75.961 40, 74.086 40 C 73.705 40, 71.057 41.164, 68.203 42.586 M 86 40.531 C 86 40.822, 87.655 42.510, 89.678 44.281 C 95.360 49.253, 101.527 58.244, 104.561 65.979 C 106.076 69.840, 107.705 73, 108.179 73 C 109.220 73, 117 67.934, 117 67.257 C 117 64.778, 109.508 53.834, 104.873 49.543 C 98.824 43.942, 86 37.819, 86 40.531 M 67.858 67.412 C 66.868 69.585, 67.343 70.521, 72.629 76.834 C 78.367 83.686, 80.804 85.044, 83.874 83.099 C 84.991 82.392, 84.732 81.278, 82.495 77.168 C 76.652 66.433, 70.249 62.165, 67.858 67.412 M 44.388 71.037 C 42.296 71.826, 38 76.544, 38 78.053 C 38 80.541, 54.439 86.778, 56.334 85.010 C 56.793 84.582, 55.969 81.698, 54.504 78.600 C 51.585 72.430, 47.934 69.700, 44.388 71.037 M 113.706 76.725 C 111.077 78.529, 110.106 79.816, 110.542 80.914 C 111.999 84.580, 114.112 96.711, 113.740 99.277 C 113.496 100.963, 113.763 101.924, 114.419 101.722 C 116.330 101.136, 119.123 94.213, 119.699 88.631 C 120.288 82.922, 119.359 73.958, 118.189 74.060 C 117.810 74.093, 115.793 75.292, 113.706 76.725 M 68 81.654 C 68 83.424, 70.671 86.342, 71.324 85.285 C 71.670 84.725, 71.063 83.462, 69.976 82.479 C 68.889 81.495, 68 81.124, 68 81.654 M 99.250 84.030 C 96.912 85.068, 95.002 86.274, 95.004 86.709 C 95.015 89.182, 105.361 103, 107.201 103 C 108.491 103, 107.697 91.349, 106.026 85.750 C 104.748 81.469, 104.916 81.512, 99.250 84.030 M 37.324 91.086 C 38.629 102.103, 46.206 108.236, 55.591 105.873 C 60.002 104.762, 60.039 104.717, 59.475 101.126 C 59.162 99.132, 58.682 96.037, 58.408 94.250 C 57.966 91.372, 57.542 90.996, 54.705 90.967 C 52.942 90.949, 49.025 90.028, 46 88.920 C 35.794 85.181, 36.601 84.980, 37.324 91.086 M 85.231 88.836 C 84.266 89.449, 84.806 91.262, 87.481 96.394 C 90.268 101.740, 91 104.296, 91 108.673 C 91 113.625, 90.647 114.553, 87.600 117.600 C 84.830 120.370, 83.434 121, 80.068 121 C 74.287 121, 70.123 118.996, 65.685 114.078 C 62.089 110.093, 61.692 109.912, 58.786 110.925 C 51.199 113.570, 42.230 111.439, 37.553 105.881 C 34.513 102.268, 33.925 102.252, 34.945 105.808 C 36.267 110.417, 38.629 114.308, 42.165 117.699 C 53.199 128.282, 77.484 129.269, 92.890 119.762 C 97.542 116.891, 104 111.064, 104 109.737 C 104 109.171, 102.012 106.582, 99.583 103.985 C 97.153 101.387, 93.735 96.728, 91.987 93.631 C 88.848 88.068, 87.711 87.262, 85.231 88.836 M 71.154 96.123 C 71.183 99.804, 70.603 102.046, 69.095 104.086 L 66.995 106.925 70.048 110.402 C 74.139 115.061, 79.199 116.755, 82.522 114.577 C 83.867 113.696, 85.254 111.836, 85.603 110.444 C 86.391 107.306, 83.897 100.539, 79.940 95.076 C 77.642 91.904, 76.336 91, 74.051 91 C 71.179 91, 71.115 91.113, 71.154 96.123 M 64 94.941 C 64 96.623, 64.450 98, 65 98 C 65.550 98, 66 96.902, 66 95.559 C 66 94.216, 65.550 92.840, 65 92.500 C 64.417 92.139, 64 93.156, 64 94.941" stroke="none" fill="#7e52f5" fill-rule="evenodd"/></svg>